<?xml version="1.0" encoding="UTF-8" standalone="no"?>
<!-- Created with Inkscape (http://www.inkscape.org/) -->

<svg
   xmlns:dc="http://purl.org/dc/elements/1.1/"
   xmlns:cc="http://creativecommons.org/ns#"
   xmlns:rdf="http://www.w3.org/1999/02/22-rdf-syntax-ns#"
   xmlns:svg="http://www.w3.org/2000/svg"
   xmlns="http://www.w3.org/2000/svg"
   xmlns:sodipodi="http://sodipodi.sourceforge.net/DTD/sodipodi-0.dtd"
   xmlns:inkscape="http://www.inkscape.org/namespaces/inkscape"
   width="250"
   height="240"
   id="svg2"
   version="1.1"
   inkscape:version="0.48.2 r9819"
   sodipodi:docname="sprite.svg"
   inkscape:export-filename="./sprite.png"
   inkscape:export-xdpi="90"
   inkscape:export-ydpi="90">
  <defs
     id="defs4" />
  <sodipodi:namedview
     id="base"
     pagecolor="#ffffff"
     bordercolor="#666666"
     borderopacity="1.0"
     inkscape:pageopacity="0.0"
     inkscape:pageshadow="2"
     inkscape:zoom="1"
     inkscape:cx="10.654816"
     inkscape:cy="69.069073"
     inkscape:document-units="px"
     inkscape:current-layer="layer2"
     showgrid="false"
     showguides="true"
     inkscape:guide-bbox="true"
     inkscape:window-width="1168"
     inkscape:window-height="765"
     inkscape:window-x="0"
     inkscape:window-y="0"
     inkscape:window-maximized="0">
    <inkscape:grid
       type="xygrid"
       id="grid2985"
       empspacing="5"
       visible="true"
       enabled="true"
       snapvisiblegridlinesonly="true" />
  </sodipodi:namedview>
  <metadata
     id="metadata7">
    <rdf:RDF>
      <cc:Work
         rdf:about="">
        <dc:format>image/svg+xml</dc:format>
        <dc:type
           rdf:resource="http://purl.org/dc/dcmitype/StillImage" />
        <dc:title />
      </cc:Work>
    </rdf:RDF>
  </metadata>
  <g
     inkscape:groupmode="layer"
     id="layer2"
     inkscape:label="BG"
     style="display:inline"
     transform="translate(0,140)">
    <path
       sodipodi:type="arc"
       style="color:#000000;fill:#333333;fill-opacity:1;fill-rule:nonzero;stroke:none;stroke-width:2;marker:none;visibility:visible;display:inline;overflow:visible;enable-background:accumulate"
       id="path4008"
       sodipodi:cx="50"
       sodipodi:cy="50"
       sodipodi:rx="65"
       sodipodi:ry="65"
       d="m 115,50 a 65,65 0 1 1 -130,0 65,65 0 1 1 130,0 z"
       transform="matrix(0.92307692,0,0,0.92307692,13.846154,-6.1538458)" />
    <path
       transform="matrix(0.92307692,0,0,0.92307692,143.84615,-6.1538458)"
       d="m 115,50 a 65,65 0 1 1 -130,0 65,65 0 1 1 130,0 z"
       sodipodi:ry="65"
       sodipodi:rx="65"
       sodipodi:cy="50"
       sodipodi:cx="50"
       id="path4045"
       style="color:#000000;fill:#222222;fill-opacity:1;fill-rule:nonzero;stroke:none;stroke-width:2;marker:none;visibility:visible;display:inline;overflow:visible;enable-background:accumulate"
       sodipodi:type="arc" />
    <path
       sodipodi:type="arc"
       style="color:#000000;fill:#ff9270;fill-opacity:1;fill-rule:nonzero;stroke:none;stroke-width:2;marker:none;visibility:visible;display:inline;overflow:visible;enable-background:accumulate"
       id="path4135"
       sodipodi:cx="190"
       sodipodi:cy="60"
       sodipodi:rx="40"
       sodipodi:ry="40"
       d="m 230,60 a 40,40 0 1 1 -80,0 40,40 0 1 1 80,0 z"
       transform="translate(0,-140)" />
  </g>
  <g
     inkscape:groupmode="layer"
     id="layer10"
     inkscape:label="Sherlock"
     style="display:inline"
     transform="translate(0,140)"
     sodipodi:insensitive="true">
    <g
       id="g4010"
       transform="translate(9.9999998,130)">
      <path
         inkscape:connector-curvature="0"
         id="path4358"
         d="m 50.869698,-125.32386 -15.06202,5.18964 -6.806874,8.25514 -1.617236,8.73791 18.803387,-3.40344 -8.42411,0 0.313791,-1.27931 8.762041,-2.60688 0.33793,-1.15862 -4.827571,0.3862 4.731019,-2.07585 3.282748,-0.0724 0.531033,-8.13446 1.641374,-2.92068 -1.399996,-0.74827 -0.09655,0.14483 -6.637909,5.67239 -5.189638,2.75172 -2.920681,6.49308 -0.796549,-1.47241 3.403437,-6.46894 4.368951,-1.95517 7.603424,-5.33447 z"
         style="color:#000000;fill:#ffffff;fill-opacity:1;fill-rule:nonzero;stroke:none;stroke-width:2;marker:none;visibility:visible;display:inline;overflow:visible;enable-background:accumulate" />
      <path
         inkscape:connector-curvature="0"
         id="path4360"
         d="m 47.152153,-106.79592 2.591782,1.03671 2.203015,-3.75808 0.259178,-11.27425 1.684659,-3.6285 2.591782,-0.64795 4.665208,1.68466 1.42548,2.98055 0.647945,8.4233 -0.777534,4.14685 -12.440554,3.36931 -2.073427,-0.64794"
         style="color:#000000;fill:#ffffff;fill-opacity:1;fill-rule:nonzero;stroke:none;stroke-width:2;marker:none;visibility:visible;display:inline;overflow:visible;enable-background:accumulate" />
      <path
         inkscape:connector-curvature="0"
         id="path4368"
         d="m 63.117531,-123.07231 6.220277,3.42115 2.902797,6.94598 0.933041,6.1166 -4.665207,-2.69545 -3.939509,0.7257 0.725699,-2.28077 4.976222,-1.14038 -3.317482,-2.9028 -1.866083,-0.51836 -0.7257,-4.87255"
         style="color:#000000;fill:#ffffff;fill-opacity:1;fill-rule:nonzero;stroke:none;stroke-width:2;marker:none;visibility:visible;display:inline;overflow:visible;enable-background:accumulate" />
      <path
         inkscape:connector-curvature="0"
         id="path4371"
         d="m 19.031316,-92.28194 2.332604,-4.535619 5.442743,-5.313151 18.920009,-3.36932 -12.95891,3.88767 14.125213,-2.72137 2.980549,1.1663 -22.289326,5.701926 -5.701921,4.017262 -0.129589,1.295892 5.701921,-0.12959 -0.12959,0.907124 -5.70192,0.259178"
         style="color:#000000;fill:#ffffff;fill-opacity:1;fill-rule:nonzero;stroke:none;stroke-width:2;marker:none;visibility:visible;display:inline;overflow:visible;enable-background:accumulate" />
      <path
         inkscape:connector-curvature="0"
         id="path4373"
         d="m 63.60997,-106.66633 5.183565,-1.42548 7.904935,4.92439 3.498906,7.516164 -4.276441,-5.961104 -7.1274,-2.98054"
         style="color:#000000;fill:#ffffff;fill-opacity:1;fill-rule:nonzero;stroke:none;stroke-width:2;marker:none;visibility:visible;display:inline;overflow:visible;enable-background:accumulate" />
      <path
         inkscape:connector-curvature="0"
         id="path4375"
         d="m 48.562082,-128.62909 0.663497,-1.65874 2.488111,0.24881 -0.165874,-1.57581 4.727411,4.81035 -3.980978,-0.41468"
         style="color:#000000;fill:#ffffff;fill-opacity:1;fill-rule:nonzero;stroke:none;stroke-width:2;marker:none;visibility:visible;display:inline;overflow:visible;enable-background:accumulate" />
      <path
         inkscape:connector-curvature="0"
         id="path4377"
         d="m 58.846274,-126.72154 3.400418,-0.74643 0.746434,1.24405"
         style="color:#000000;fill:#ffffff;fill-opacity:1;fill-rule:nonzero;stroke:none;stroke-width:2;marker:none;visibility:visible;display:inline;overflow:visible;enable-background:accumulate" />
      <path
         sodipodi:nodetypes="cccccccc"
         inkscape:connector-curvature="0"
         id="path4379"
         d="m 15.531972,-66.886671 0.857466,-2.808182 4.320367,-3.149873 3.294898,0.09144 0.89939,1.04795 -2.842291,0.280343 -4.419313,3.302194 -0.717301,2.32722"
         style="color:#000000;fill:#ffffff;fill-opacity:1;fill-rule:nonzero;stroke:none;stroke-width:2;marker:none;visibility:visible;display:inline;overflow:visible;enable-background:accumulate" />
      <path
         inkscape:connector-curvature="0"
         id="path4381"
         d="m 17.605254,-65.227473 1.233476,-2.40204 3.708622,-2.690035 2.691261,-0.01686 0.423559,2.367089 2.773316,5.593175 -2.867713,1.798067 -3.816207,-3.786439 2.786692,4.16365 -0.450317,0.491958 -4.469262,-4.995137"
         style="color:#000000;fill:#ffffff;fill-opacity:1;fill-rule:nonzero;stroke:none;stroke-width:2;marker:none;visibility:visible;display:inline;overflow:visible;enable-background:accumulate" />
      <path
         inkscape:connector-curvature="0"
         id="path4383"
         d="m 26.082419,-63.583676 4.442421,-0.03847 11.813162,-9.373848 0.457359,0.732619 -13.022237,11.139356 -3.530303,0.07101"
         style="color:#000000;fill:#ffffff;fill-opacity:1;fill-rule:nonzero;stroke:none;stroke-width:2;marker:none;visibility:visible;display:inline;overflow:visible;enable-background:accumulate" />
      <path
         sodipodi:nodetypes="ccccccccccccccccccccccccccccccccccccccccccccc"
         inkscape:connector-curvature="0"
         id="path4415"
         d="m 83.494379,-85.14901 -13.931879,4.21151 -12.21875,5.65625 -10.38116,9.491351 0.40625,1.193872 10.78741,-9.747723 12.46875,-6.1875 12.869379,-4.05526 z M 84,-83.28125 70.71875,-78.25 58.5,-72.59375 l -7.575361,7.330982 1.007545,0.437958 8.497007,-7.346836 11.383309,-5.672104 12.03125,-4.8125 z m -0.543689,3.231647 -11.550061,5.330853 -9.727669,4.33651 -8.272331,6.25724 1.265243,-0.163338 L 60.5,-68.15625 72.96875,-74.3125 83.456311,-79.455853 z m -0.338704,3.01096 -10.461357,5.288643 -12.21875,5.65625 -5.78125,4.9375 0.320351,0.812805 6.242149,-4.812805 12.5,-6.1875 9.555107,-5.163643 z m 0.742302,2.758003 -10.578659,5.84314 -9.469971,3.563416 -7.241539,5.655944 0.40625,1.46875 7.647789,-6.187194 9.719971,-4.094666 9.703659,-5.71814 z"
         style="color:#000000;fill:#ffffff;fill-opacity:1;fill-rule:nonzero;stroke:none;stroke-width:2;marker:none;visibility:visible;display:inline;overflow:visible;enable-background:accumulate" />
      <path
         inkscape:connector-curvature="0"
         id="path4429"
         d="m 53.105885,-71.343217 3.023657,5.909875 0.618475,3.367255 1.511829,2.748779 0.481036,-0.481036 -1.374389,-2.68006 -0.687195,-3.161096 -2.748779,-5.841156 0,0"
         style="color:#000000;fill:#ffffff;fill-opacity:1;fill-rule:nonzero;stroke:none;stroke-width:2;marker:none;visibility:visible;display:inline;overflow:visible;enable-background:accumulate" />
      <path
         style="color:#000000;fill:#ffffff;fill-opacity:1;fill-rule:nonzero;stroke:none;stroke-width:2;marker:none;visibility:visible;display:inline;overflow:visible;enable-background:accumulate"
         d="m 55.253369,-72.739081 3.023657,5.909875 0.618475,3.367255 1.511829,2.748779 0.481036,-0.481036 -1.374389,-2.68006 -0.687195,-3.161096 -2.748779,-5.841156 0,0"
         id="path4431"
         inkscape:connector-curvature="0" />
      <path
         inkscape:connector-curvature="0"
         id="path4433"
         d="m 57.508227,-74.671816 3.023657,5.909875 0.618475,3.367255 1.511829,2.748779 0.481036,-0.481036 -1.374389,-2.68006 -0.687195,-3.161096 -2.748779,-5.841156 0,0"
         style="color:#000000;fill:#ffffff;fill-opacity:1;fill-rule:nonzero;stroke:none;stroke-width:2;marker:none;visibility:visible;display:inline;overflow:visible;enable-background:accumulate" />
      <path
         style="color:#000000;fill:#ffffff;fill-opacity:1;fill-rule:nonzero;stroke:none;stroke-width:2;marker:none;visibility:visible;display:inline;overflow:visible;enable-background:accumulate"
         d="m 59.440962,-76.282429 3.023657,5.909875 0.618475,3.367255 1.511829,2.748779 0.481036,-0.481036 -1.374389,-2.68006 -0.687195,-3.161096 -2.748779,-5.841156 0,0"
         id="path4435"
         inkscape:connector-curvature="0" />
      <path
         inkscape:connector-curvature="0"
         id="path4437"
         d="m 61.803194,-76.711926 3.023657,5.909875 0.618475,3.367255 1.511829,2.748779 0.481036,-0.481036 -1.374389,-2.68006 -0.687195,-3.161096 -2.748779,-5.841156 0,0"
         style="color:#000000;fill:#ffffff;fill-opacity:1;fill-rule:nonzero;stroke:none;stroke-width:2;marker:none;visibility:visible;display:inline;overflow:visible;enable-background:accumulate" />
      <path
         style="color:#000000;fill:#ffffff;fill-opacity:1;fill-rule:nonzero;stroke:none;stroke-width:2;marker:none;visibility:visible;display:inline;overflow:visible;enable-background:accumulate"
         d="m 64.165426,-78.000416 3.023657,5.909875 0.618475,3.367255 1.511829,2.748779 0.481036,-0.481036 -1.374389,-2.68006 -0.687195,-3.161096 -2.748779,-5.841156 0,0"
         id="path4439"
         inkscape:connector-curvature="0" />
      <path
         inkscape:connector-curvature="0"
         id="path4441"
         d="m 66.788535,-79.169732 2.550094,6.129123 0.352066,3.405432 1.291242,2.85904 0.517335,-0.441765 -1.159624,-2.779737 -0.436768,-3.205308 -2.281463,-6.039024 0,0"
         style="color:#000000;fill:#ffffff;fill-opacity:1;fill-rule:nonzero;stroke:none;stroke-width:2;marker:none;visibility:visible;display:inline;overflow:visible;enable-background:accumulate" />
      <path
         inkscape:connector-curvature="0"
         id="path4443"
         d="m 63.91417,-54.616466 4.429185,-5.36871 10.200548,-6.308233 5.637144,-4.966056 -0.134217,1.342178 -5.234492,4.831838 -9.261023,5.771362 -3.623879,4.966056"
         style="color:#000000;fill:#ffffff;fill-opacity:1;fill-rule:nonzero;stroke:none;stroke-width:2;marker:none;visibility:visible;display:inline;overflow:visible;enable-background:accumulate" />
      <path
         inkscape:connector-curvature="0"
         id="path4445"
         d="m 65.406672,-56.087493 7.730941,2.233383 0.858993,-1.116691 -7.215545,-2.061585"
         style="color:#000000;fill:#ffffff;fill-opacity:1;fill-rule:nonzero;stroke:none;stroke-width:2;marker:none;visibility:visible;display:inline;overflow:visible;enable-background:accumulate" />
      <path
         sodipodi:nodetypes="cccc"
         style="color:#000000;fill:#ffffff;fill-opacity:1;fill-rule:nonzero;stroke:none;stroke-width:2;marker:none;visibility:visible;display:inline;overflow:visible;enable-background:accumulate"
         d="m 67.210558,-58.406775 7.730941,2.233383 0,-0.343597 -6.356552,-2.834679"
         id="path4447"
         inkscape:connector-curvature="0" />
      <path
         sodipodi:nodetypes="cccc"
         inkscape:connector-curvature="0"
         id="path4449"
         d="m 70.474733,-60.296561 7.730941,2.233383 0.0859,-0.515396 -6.442451,-2.66288"
         style="color:#000000;fill:#ffffff;fill-opacity:1;fill-rule:nonzero;stroke:none;stroke-width:2;marker:none;visibility:visible;display:inline;overflow:visible;enable-background:accumulate" />
      <path
         style="color:#000000;fill:#ffffff;fill-opacity:1;fill-rule:nonzero;stroke:none;stroke-width:2;marker:none;visibility:visible;display:inline;overflow:visible;enable-background:accumulate"
         d="m 72.965814,-62.186347 4.552665,1.28849 0.0859,-0.515396 -3.264175,-1.717987"
         id="path4451"
         inkscape:connector-curvature="0"
         sodipodi:nodetypes="cccc" />
      <path
         sodipodi:nodetypes="cccc"
         inkscape:connector-curvature="0"
         id="path4453"
         d="m 75.285096,-63.474837 4.982162,0.858993 0.0859,-0.515396 -3.693672,-1.28849"
         style="color:#000000;fill:#ffffff;fill-opacity:1;fill-rule:nonzero;stroke:none;stroke-width:2;marker:none;visibility:visible;display:inline;overflow:visible;enable-background:accumulate" />
      <path
         sodipodi:nodetypes="cccc"
         inkscape:connector-curvature="0"
         id="path4455"
         d="m 77.947976,-65.192824 4.552665,1.28849 0.0859,-0.515396 -3.264175,-1.717987"
         style="color:#000000;fill:#ffffff;fill-opacity:1;fill-rule:nonzero;stroke:none;stroke-width:2;marker:none;visibility:visible;display:inline;overflow:visible;enable-background:accumulate" />
      <path
         style="color:#000000;fill:#ffffff;fill-opacity:1;fill-rule:nonzero;stroke:none;stroke-width:2;marker:none;visibility:visible;display:inline;overflow:visible;enable-background:accumulate"
         d="m 80.353158,-67.08261 4.552665,1.28849 0.0859,-0.515396 -3.264175,-1.717987"
         id="path4457"
         inkscape:connector-curvature="0"
         sodipodi:nodetypes="cccc" />
      <path
         style="color:#000000;fill:#ffffff;fill-opacity:1;fill-rule:nonzero;stroke:none;stroke-width:2;marker:none;visibility:visible;display:inline;overflow:visible;enable-background:accumulate"
         d="m 68.379863,-79.933151 3.023657,5.909875 0.618475,3.367255 1.511829,2.748779 0.481036,-0.481036 -1.374389,-2.68006 -0.687195,-3.161096 -2.748779,-5.841156 0,0"
         id="path4459"
         inkscape:connector-curvature="0" />
      <path
         inkscape:connector-curvature="0"
         id="path4461"
         d="m 70.742095,-81.221641 3.023657,5.909875 0.618475,3.367255 1.511829,2.748779 0.481036,-0.481036 -1.374389,-2.68006 -0.687195,-3.161096 -2.748779,-5.841156 0,0"
         style="color:#000000;fill:#ffffff;fill-opacity:1;fill-rule:nonzero;stroke:none;stroke-width:2;marker:none;visibility:visible;display:inline;overflow:visible;enable-background:accumulate" />
      <path
         style="color:#000000;fill:#ffffff;fill-opacity:1;fill-rule:nonzero;stroke:none;stroke-width:2;marker:none;visibility:visible;display:inline;overflow:visible;enable-background:accumulate"
         d="m 73.230503,-82.337936 2.684347,6.071524 0.426918,3.396861 1.353841,2.829933 0.507489,-0.453041 -1.220511,-2.753547 -0.507195,-3.19492 -2.413799,-5.987359 0,0"
         id="path4463"
         inkscape:connector-curvature="0" />
      <path
         inkscape:connector-curvature="0"
         id="path4465"
         d="m 76.3125,-84.21875 -0.84375,0.03125 1.875,5.4375 0.5625,-0.34375 -1.59375,-5.125 z m 1.4375,9.125 0.03125,0.59375 0.46875,1.21875 -0.5,-1.8125 z"
         style="color:#000000;fill:#ffffff;fill-opacity:1;fill-rule:nonzero;stroke:none;stroke-width:2;marker:none;visibility:visible;display:inline;overflow:visible;enable-background:accumulate" />
      <path
         inkscape:connector-curvature="0"
         id="path4474"
         d="m 49.183775,-60.119393 4.69762,3.858759 1.845494,6.710887 -4.865393,-3.355443 -3.858759,6.039797 -0.671089,-1.342177 2.684355,-7.885291 -3.523216,5.536481"
         style="color:#000000;fill:#ffffff;fill-opacity:1;fill-rule:nonzero;stroke:none;stroke-width:2;marker:none;visibility:visible;display:inline;overflow:visible;enable-background:accumulate" />
      <path
         inkscape:connector-curvature="0"
         id="path4476"
         d="m 43.647293,-49.381975 -3.221225,-6.174016 -2.95279,5.100274 5.368709,3.892314 -1.879048,-4.160749 3.087008,2.147483 0.939524,0.671089"
         style="color:#000000;fill:#ffffff;fill-opacity:1;fill-rule:nonzero;stroke:none;stroke-width:2;marker:none;visibility:visible;display:inline;overflow:visible;enable-background:accumulate" />
      <path
         inkscape:connector-curvature="0"
         id="path4478"
         d="m 41.90461,-59.04243 -3.642132,6.734508 0.687195,1.44311 2.68006,-1.511829 0.137439,-1.855426"
         style="color:#000000;fill:#ffffff;fill-opacity:1;fill-rule:nonzero;stroke:none;stroke-width:2;marker:none;visibility:visible;display:inline;overflow:visible;enable-background:accumulate" />
    </g>
  </g>
</svg>
